<svg width="1024" height="1024" viewBox="0 0 1024 1024" fill="none" xmlns="http://www.w3.org/2000/svg">
<path d="M867.479 573L867.494 556.439C867.475 554.992 866.998 551.558 867.409 550.294C867.411 550.289 868.556 549.521 868.596 549.494C872.254 547.048 876.207 544.968 879.703 542.295C888.034 535.926 893.733 527.204 899.284 518.501L911.425 537.146C907.863 550 893.523 560.418 882.429 566.683C877.902 569.239 872.614 572.085 867.479 573Z" fill="#EC8851"/>
<path d="M26.0452 497.756C26.8046 498.878 27.3672 499.981 27.8944 501.23L29.5634 504.795C33.8307 512.182 44.8705 518.114 53.0029 520.106C62.4068 522.41 73.4088 523.269 82.7207 520.128C97.0029 515.312 108.257 503.63 113.99 489.797C115.477 486.209 115.788 481.504 117.559 478.299L118.061 477.446C121.078 491.211 114.847 507.327 107.554 518.826C102.069 527.475 93.8313 532.955 83.8318 535.071C70.5699 537.877 54.3888 533.224 43.3124 525.851C35.3251 520.535 28.1433 513.303 26.2774 503.53C25.9159 501.636 25.9924 499.674 26.0452 497.756Z" fill="#EC8851"/>
<path d="M905.403 480.089L905.743 480.504C909.053 484.704 909.397 489.786 911.449 494.513C917.878 509.32 931.39 522.377 947.914 524.554C959.275 526.049 974.149 521.378 983.106 514.433C990.465 508.726 994.173 502.566 996.432 493.675L997.2 496.807C998.432 504.773 995.387 514.119 990.567 520.45C982.665 530.832 969.875 537.098 957.086 538.693C946.317 540.036 936.658 537.475 928.09 530.719C912.67 518.561 907.541 498.675 905.403 480.089Z" fill="#EC8851"/>
<path d="M911.425 537.146C916.911 542.512 922.364 546.229 928.918 550.169C918.329 565.156 905.645 578.964 888.574 586.6C881.66 589.691 874.503 591.427 867.094 592.845C867.036 586.459 866.391 579.288 867.479 573C872.614 572.085 877.902 569.239 882.429 566.683C893.523 560.418 907.863 550 911.425 537.146Z" fill="#E15A22"/>
<path d="M158.227 572.142L158.17 592.407C138.064 589.46 118.809 576.005 104.565 562.177C100.479 558.211 96.2859 554.288 92.8359 549.741C97.6824 547.289 102.426 544.87 106.767 541.579C114.881 535.428 120.4 527.443 125.777 518.919L131.441 526.162C136.855 532.281 142.152 537.369 148.872 542.042C150.177 542.949 158.27 547.188 158.451 547.62C158.809 548.479 158.412 551.913 158.401 552.985L158.227 572.142Z" fill="#E15A22"/>
<path d="M131.441 526.162C136.855 532.281 142.152 537.368 148.872 542.042C150.177 542.949 158.27 547.188 158.451 547.62C158.809 548.479 158.412 551.912 158.401 552.985L158.227 572.142L150.278 571.012C139.444 568.634 127.046 561.673 121.079 552.067L120.625 551.304C118.847 548.393 117.221 545.46 117.436 541.928C117.795 536.062 127.295 529.729 131.441 526.162Z" fill="#EC8851"/>
<path d="M26.0454 497.756L26.1038 497.191C26.7011 492.032 28.311 488.141 32.6361 485.012C37.9272 481.184 45.5714 481.12 51.7777 482.163L52.6635 482.319C58.2589 483.241 65.9773 488.659 71.5208 487.463C73.5082 487.035 76.543 484.71 77.2094 482.756C77.713 481.277 77.4582 478.523 77.45 476.891C77.4087 469.113 76.767 460.528 81.7326 453.926C84.6648 450.027 89.5371 447.178 94.4248 446.721C98.4315 446.344 102.299 448.095 105.32 450.6C113.33 457.245 117.299 467.278 118.061 477.446L117.559 478.299C115.788 481.504 115.477 486.209 113.99 489.797C108.258 503.63 97.0031 515.311 82.721 520.128C73.4091 523.269 62.4071 522.409 53.0032 520.106C44.8708 518.114 33.831 512.182 29.5636 504.795L27.8947 501.23C27.3675 499.981 26.8049 498.878 26.0454 497.756Z" fill="#F2BB93"/>
<path d="M905.403 480.089C905.53 476.203 906.003 472.681 906.668 468.859C907.919 461.669 911.189 454.887 917.341 450.659C920.803 448.279 925.265 446.927 929.453 447.795C934.814 448.908 939.86 452.52 942.506 457.295C943.957 459.911 944.788 462.69 945.585 465.551L945.868 466.52C947.627 472.886 947.19 480.546 947.591 487.132C947.719 489.226 947.68 492.643 948.626 494.477C959.777 488.611 968.544 478.934 982.284 481.507L983.213 481.675C988.022 482.636 991.945 486.346 994.574 490.342C995.282 491.415 995.915 492.498 996.432 493.675C994.173 502.566 990.465 508.726 983.106 514.433C974.149 521.379 959.275 526.049 947.914 524.554C931.39 522.378 917.878 509.32 911.449 494.513C909.397 489.787 909.053 484.704 905.743 480.504L905.403 480.089Z" fill="#F2BB93"/>
<path d="M190.543 461.186C197.674 452.812 208.203 446.005 216.841 439.17L265.288 400.716L274.635 393.311C276.844 391.651 279.39 390.142 281.268 388.104C281.539 387.81 281.866 387.555 282.063 387.207C282.838 385.831 281.912 346.941 281.75 343.272C281.536 338.466 281.077 332.026 284.803 328.341C285.723 327.432 288.138 325.469 289.275 325.112C292.625 324.057 298.279 325.369 301.825 325.446L336.325 325.524C336.894 319.131 337.284 312.62 338.37 306.292C342.486 282.306 351.37 259.823 364.034 239.064C387.182 201.121 428.549 172.161 471.629 161.967C505.005 154.069 540.809 155.376 573.047 167.424C586.082 172.297 598.388 179.113 610.198 186.419C614.326 181.178 618.128 175.028 623.022 170.493C625.428 168.263 627.469 167.288 630.805 167.502C633.857 167.698 635.993 169.037 637.837 171.443C640.057 174.336 641.291 178.738 642.604 182.164L654.509 217.788L665.94 252.002C670.09 264.292 675.136 276.662 678.713 289.079C679.626 292.248 680.647 295.951 680.153 299.246C679.81 301.537 677.958 303.635 676.092 304.89C670.75 308.481 642.275 301.688 635.276 300.355L642.776 325.525L723.701 324.963C728.102 324.877 734.156 325.018 737.43 328.36C738.755 329.712 739.071 331.291 739.312 333.118C739.99 338.265 739.203 344.015 739.12 349.233L738.594 386.018C741.891 389.147 745.758 391.695 749.402 394.402L766.928 407.553L823.373 450.376C829.488 455.872 832.322 459.336 832.748 467.747L832.846 491.555L832.86 537.755L832.867 677.02L832.851 756.225C832.846 770.032 834.171 785.191 831.898 798.75C829.363 813.879 821.271 829.256 811.042 840.621C796.059 857.267 775.463 866.619 753.206 867.538L712.525 867.788L642.586 867.803L430.642 867.798L309.875 867.612L285.382 867.414C276.806 867.414 268.403 867.535 259.954 865.792L258.951 865.593C244.002 862.534 230.202 855.384 218.91 845.149C215.755 842.288 213.066 838.93 210.028 835.94C201.492 823.246 194.429 810.41 191.973 795.114C190.119 783.566 191.136 770.767 191.129 759.059L191.099 693.463L190.543 461.186Z" fill="#020638"/>
<path d="M572.325 275.053L564.203 273.398L628.022 189.634C629.203 190.63 629.834 193.946 630.354 195.497C625.444 202.035 621.314 209.231 616.575 215.931L591.621 249.818C585.509 258.261 579.481 267.455 572.325 275.053Z" fill="#FEFEFE"/>
<path d="M360.995 325.498L352.138 325.486C355.322 296.467 362.827 270.346 378.75 245.579C402.449 208.718 441.302 184.257 483.847 175.34C524.199 166.883 565.899 176.871 600.195 198.931L595.406 205.762C588.258 202.337 581.403 198.361 574.044 195.373C538.338 180.884 499.26 177.928 462.596 190.98C423.662 204.838 392.733 233.125 375.1 270.424C366.931 287.704 362.498 306.5 360.995 325.498Z" fill="#FEFEFE"/>
<path d="M281.472 408.937C282.237 409.031 281.835 408.892 282.604 409.526L282.538 515.202L245.415 486.035L214.807 461.627C221.006 455.642 228.442 450.53 235.194 445.157L281.472 408.937Z" fill="#0C9263"/>
<path d="M739.368 406.564L811.008 461.156L780.003 484.53L739.706 515.996L739.368 406.564Z" fill="#0C9263"/>
<path d="M630.354 195.497L661.753 289.224L572.325 275.053C579.481 267.455 585.509 258.261 591.621 249.818L616.575 215.931C621.314 209.231 625.444 202.035 630.354 195.497Z" fill="#F1B148"/>
<path d="M360.996 325.498C362.498 306.5 366.931 287.704 375.1 270.424C392.733 233.125 423.662 204.838 462.596 190.98C499.26 177.928 538.338 180.885 574.044 195.373C581.404 198.361 588.259 202.337 595.406 205.762L575.186 233.337C572.002 232.363 568.692 229.87 565.731 228.227C561.407 225.826 556.823 223.727 552.196 221.984C521.667 210.481 487.152 213.518 458.454 228.778C427.889 245.031 407.23 270.457 397.237 303.568L392.442 325.494L360.996 325.498Z" fill="#A7318C"/>
<path d="M692.411 340.819L723.522 340.827L723.797 528.948L591.749 631.963L566.915 651.061C557.839 658.211 548.511 666.282 538.063 671.344C527.915 676.261 515.482 677.324 504.399 676.144C497.868 675.45 490.918 673.827 485.013 670.883C474.961 665.871 465.921 656.943 457.077 649.998C447.48 642.461 437.338 635.355 428.393 627.05C433.682 627.533 439.515 631.505 444.535 633.519L470.529 643.04C477.113 645.1 483.77 646.548 490.616 647.333C494.084 647.73 497.725 647.573 501.155 648.094L502.924 648.455C505.499 648.637 508.589 648.037 511.18 647.8C542.414 644.942 570.643 624.022 594.923 605.563C615.128 590.202 634.27 573.972 652.203 556.004C673.515 534.652 689.081 509.829 691.97 479.375C693.537 462.877 692.449 445.452 692.446 428.867L692.411 340.819Z" fill="#D8D8D9"/>
<path d="M509.82 230.783C513.743 230.099 518.629 230.573 522.598 230.945C537.935 232.379 551.896 237.723 564.977 245.715C564.528 247.684 563.13 249.462 562.049 251.144C558.831 256.15 555.313 260.533 551.428 265.013C549.333 267.429 546.247 270.648 545.706 273.888C545.184 277.013 545.705 280.4 547.559 283.006C548.741 284.668 550.351 285.843 552.265 286.528C560.034 289.31 569.583 289.737 577.73 291.084L617.408 297.954L626.615 325.493L545.975 325.506L408.653 325.482C410.898 307.196 417.392 288.12 429.211 273.776C450.54 247.892 476.527 234.097 509.82 230.783Z" fill="#FEFEFE"/>
<path d="M791.959 495.325L816.966 475.822L816.483 555.391L816.938 711.649L816.969 759.447C816.964 772.528 817.767 786.1 815.127 798.986C812.237 813.103 804.867 825.459 794.21 835.114C785.831 842.704 773.147 849.363 761.801 850.69C753.831 851.622 745.534 851.213 737.514 851.209L698.956 851.137L572.513 850.941L372.565 850.942L308.377 850.954C295.895 850.959 283.329 851.405 270.864 850.692C252.902 849.665 236.282 841.599 224.417 828.068C216.889 819.484 210.097 808.249 208.915 796.641C211.658 799.532 213.585 802.971 216.015 806.099C222.486 814.424 232.385 820.864 242.695 823.17L243.736 823.395C250.14 824.83 256.712 824.448 263.235 824.45L289.957 824.458L381.778 824.473L619.21 824.475L738.555 824.448C753.3 824.316 766.094 818.032 776.298 807.566C784.292 799.37 789.751 789.004 791.662 777.688C793.7 765.614 792.839 752.584 792.829 740.348L792.594 679.019L791.959 495.325Z" fill="#DC5C00"/>
<path d="M428.393 627.05L298.605 527.085L298.493 340.826L692.411 340.819L692.446 428.867C692.449 445.452 693.537 462.877 691.97 479.375C689.081 509.829 673.515 534.652 652.203 556.004C634.27 573.972 615.128 590.202 594.923 605.563C570.643 624.022 542.414 644.942 511.181 647.8C508.589 648.037 505.499 648.637 502.924 648.455L501.155 648.094C497.725 647.573 494.084 647.73 490.617 647.333C483.77 646.548 477.113 645.1 470.529 643.04L444.535 633.519C439.515 631.505 433.683 627.533 428.393 627.05Z" fill="#FEFEFE"/>
<path d="M462.025 561.313C463.827 560.918 466.004 560.804 467.835 561.223C472.655 562.326 473.196 566.851 474.558 569.686C475.371 571.378 476.452 572.959 477.702 574.521C483.117 581.291 492.145 586.543 503.245 588.524C518.137 591.181 536.281 586.352 544.878 577.777C547.055 575.605 548.648 573.145 550.046 570.707C551.312 568.503 551.879 565.593 555.201 564.381C556.83 563.786 558.975 563.44 560.775 563.856C562.866 564.339 564.491 565.642 565.371 566.971C567.146 569.649 565.367 572.195 564.057 574.769C560.129 581.913 552.85 588.056 543.739 592.493C532.133 598.143 517.117 600.449 502.994 598.794C488.52 597.097 475.961 591.463 467.605 583.353C463.137 579.017 456.317 569.68 458.395 564.253C459.039 562.574 459.897 562.104 462.025 561.313Z" fill="#020638"/>
<circle cx="604.478" cy="445.877" r="16.2741" fill="white"/>
<circle cx="412.095" cy="448.783" r="66.8401" fill="black"/>
<circle cx="412.094" cy="448.783" r="58.2551" fill="#97E7F6"/>
<circle cx="412.095" cy="448.783" r="47.2173" fill="#34BAF6"/>
<circle cx="412.094" cy="448.783" r="26.3681" fill="black"/>
<circle cx="403.957" cy="439.484" r="14.5305" fill="white"/>
<circle cx="426.198" cy="460.434" r="6.13212" fill="white"/>
<circle cx="610.871" cy="448.783" r="66.8401" fill="black"/>
<circle cx="610.871" cy="448.783" r="58.2551" fill="#97E7F6"/>
<circle cx="610.871" cy="448.783" r="47.2173" fill="#34BAF6"/>
<circle cx="610.871" cy="448.783" r="26.3681" fill="black"/>
<ellipse cx="602.153" cy="438.902" rx="13.9492" ry="13.9492" fill="white"/>
<circle cx="623.397" cy="461.309" r="6.13212" fill="white"/>
<path d="M208.915 796.641C206.161 781.388 207.099 766.078 207.126 750.647L207.153 692.301L207.071 476.43L457.642 670.48L356.01 749.904L311.851 784.396C310.479 785.54 307.953 787.501 307.331 789.163C306.56 791.226 306.592 794.098 307.555 796.096C308.744 798.561 311.015 799.78 313.51 800.552C315.881 800.427 317.328 799.807 319.311 798.518C324.555 795.107 329.42 790.903 334.334 787.025L360.204 766.506L423.166 717.008C438.78 704.698 454.407 691.557 470.873 680.447C474.781 682.837 478.673 685.17 482.916 686.926C501.795 694.742 522.497 693.735 541.348 686.319C545.216 684.796 548.751 682.496 552.613 680.884L662.41 766.711L687.85 786.568C694.276 791.618 700.232 797.187 707.689 800.684C709.93 800.059 712.63 798.728 714.144 796.909C715.679 795.064 715.838 792.806 715.575 790.494C715.357 788.565 714.155 787.207 712.782 785.93C706.138 779.749 698.599 774.479 691.443 768.914L658.603 743.22L566.172 671.409L791.959 495.325L792.594 679.019L792.829 740.348C792.839 752.585 793.7 765.614 791.662 777.688C789.751 789.004 784.292 799.37 776.298 807.566C766.094 818.032 753.3 824.316 738.556 824.448L619.21 824.475L381.778 824.473L289.958 824.458L263.236 824.451C256.712 824.448 250.14 824.83 243.737 823.395L242.695 823.17C232.385 820.864 222.486 814.424 216.016 806.099C213.585 802.971 211.659 799.532 208.915 796.641Z" fill="#DC5C00"/>
</svg>
